<?xml version="1.0" encoding="iso-8859-1"?>
<!-- Generator: Adobe Illustrator 19.0.0, SVG Export Plug-In . SVG Version: 6.00 Build 0)  -->
<svg version="1.1" id="Capa_1" xmlns="http://www.w3.org/2000/svg" xmlns:xlink="http://www.w3.org/1999/xlink" x="0px" y="0px"
	 viewBox="0 0 512 512" style="enable-background:new 0 0 512 512;" xml:space="preserve">
<linearGradient id="SVGID_1_" gradientUnits="userSpaceOnUse" x1="2.531171e-004" y1="258" x2="511.9998" y2="258" gradientTransform="matrix(1 0 0 -1 0 514)">
	<stop  offset="0" style="stop-color:#00F2FE"/>
	<stop  offset="0.021" style="stop-color:#03EFFE"/>
	<stop  offset="0.293" style="stop-color:#24D2FE"/>
	<stop  offset="0.554" style="stop-color:#3CBDFE"/>
	<stop  offset="0.796" style="stop-color:#4AB0FE"/>
	<stop  offset="1" style="stop-color:#4FACFE"/>
</linearGradient>
<path style="fill:url(#SVGID_1_);" d="M512,210c0,36.471-9.5,72.402-27.473,103.91c-5.472,9.593-17.685,12.937-27.282,7.462
	c-9.594-5.473-12.936-17.688-7.462-27.282C464.318,268.61,472,239.532,472,210c0-93.738-76.262-170-170-170s-170,76.262-170,170
	s76.262,170,170,170c29.172,0,57.94-7.508,83.196-21.711c9.629-5.415,21.821-1.999,27.236,7.629
	c5.414,9.628,1.999,21.821-7.629,27.236C373.574,410.717,338.026,420,302,420c-50.477,0-96.848-17.906-133.105-47.694L34.094,506.19
	C30.193,510.065,25.096,512,20,512c-5.142,0-10.281-1.97-14.19-5.906c-7.784-7.837-7.74-20.5,0.097-28.284l134.619-133.703
	C110.24,307.704,92,260.944,92,210C92,94.206,186.206,0,302,0S512,94.206,512,210z M423.275,224.625
	c-3.903,5.465-10.052,8.376-16.291,8.377c-4.023,0-8.085-1.21-11.608-3.728L372.591,213H362v29h9c4.541,0,8.947,1.546,12.494,4.383
	l30,24c8.625,6.9,10.023,19.486,3.123,28.111c-3.95,4.938-9.763,7.507-15.63,7.507c-4.382,0-8.794-1.434-12.481-4.384L363.984,282
	h-5.425c-8.256,23.278-30.487,40-56.56,40c-26.444,0-48.931-17.203-56.899-41h-4.492l-25.692,19.062
	c-3.582,2.657-7.76,3.939-11.901,3.939c-6.116,0-12.153-2.795-16.077-8.084c-6.582-8.871-4.727-21.397,4.145-27.979l31-23
	C225.53,242.381,229.708,241,234,241h8v-29h-10.199l-25.1,15.896c-3.32,2.103-7.023,3.106-10.683,3.106
	c-6.625,0-13.107-3.29-16.915-9.302c-5.91-9.332-3.136-21.688,6.195-27.598l30-19C218.5,173.076,222.211,172,226,172h16.677
	c2.37-15.684,10.838-29.388,22.898-38.633l-21.553-21.063c-7.899-7.72-8.046-20.383-0.325-28.282
	c7.72-7.901,20.383-8.045,28.282-0.325l29.86,29.181l29.019-29.02c7.811-7.811,20.475-7.811,28.285,0s7.811,20.475,0,28.285
	l-21.001,21.001c12.469,9.44,21.137,23.632,23.31,39.856H379c4.168,0,8.232,1.303,11.625,3.726l28,20
	C427.613,203.146,429.695,215.637,423.275,224.625z M322,181c0-11.028-8.972-20-20-20s-20,8.972-20,20v81c0,11.028,8.972,20,20,20
	s20-8.972,20-20V181z"/>
<g>
</g>
<g>
</g>
<g>
</g>
<g>
</g>
<g>
</g>
<g>
</g>
<g>
</g>
<g>
</g>
<g>
</g>
<g>
</g>
<g>
</g>
<g>
</g>
<g>
</g>
<g>
</g>
<g>
</g>
</svg>
