<?xml version="1.0" encoding="iso-8859-1"?>
<!-- Generator: Adobe Illustrator 19.0.0, SVG Export Plug-In . SVG Version: 6.00 Build 0)  -->
<svg version="1.1" id="Capa_1" xmlns="http://www.w3.org/2000/svg" xmlns:xlink="http://www.w3.org/1999/xlink" x="0px" y="0px"
	 viewBox="0 0 512 512" style="enable-background:new 0 0 512 512;" xml:space="preserve">
<linearGradient id="SVGID_1_" gradientUnits="userSpaceOnUse" x1="0" y1="258.0001" x2="512.0002" y2="258.0001" gradientTransform="matrix(1 0 0 -1 0 514.0002)">
	<stop  offset="0" style="stop-color:#00F2FE"/>
	<stop  offset="0.021" style="stop-color:#03EFFE"/>
	<stop  offset="0.293" style="stop-color:#24D2FE"/>
	<stop  offset="0.554" style="stop-color:#3CBDFE"/>
	<stop  offset="0.796" style="stop-color:#4AB0FE"/>
	<stop  offset="1" style="stop-color:#4FACFE"/>
</linearGradient>
<path style="fill:url(#SVGID_1_);" d="M282,472H80c-22.056,0-40-17.944-40-40V268c0-22.056,17.944-40,40-40h288
	c22.056,0,40,17.944,40,40v44c0,11.046,8.954,20,20,20s20-8.954,20-20v-44c0-44.112-35.888-80-80-80h-24.037v-70.534
	C343.963,52.695,290.131,0,223.963,0s-120,52.695-120,117.466V188H80c-44.112,0-80,35.888-80,80v164c0,44.112,35.888,80,80,80h202
	c11.046,0,20-8.954,20-20S293.046,472,282,472z M143.963,117.466c0-42.715,35.888-77.466,80-77.466s80,34.751,80,77.466V188h-160
	L143.963,117.466L143.963,117.466z M112,326c11.046,0,20,8.954,20,20l0,0c0,11.046-8.954,20-20,20s-20-8.954-20-20l0,0
	C92,334.954,100.954,326,112,326z M187,326c11.046,0,20,8.954,20,20l0,0c0,11.046-8.954,20-20,20s-20-8.954-20-20l0,0
	C167,334.954,175.954,326,187,326z M262,326c11.046,0,20,8.954,20,20l0,0c0,11.046-8.954,20-20,20s-20-8.954-20-20l0,0
	C242,334.954,250.954,326,262,326z M506.142,477.857c7.811,7.811,7.811,20.475,0,28.285C502.237,510.048,497.119,512,492,512
	s-10.237-1.952-14.142-5.857L427,455.285l-50.858,50.858C372.237,510.048,367.119,512,362,512s-10.237-1.952-14.142-5.857
	c-7.811-7.811-7.811-20.475,0-28.285L398.715,427l-50.857-50.857c-7.811-7.811-7.811-20.475,0-28.285s20.474-7.811,28.284,0
	L427,398.715l50.858-50.858c7.811-7.811,20.474-7.811,28.284,0c7.81,7.811,7.811,20.475,0,28.285L455.285,427L506.142,477.857z"/>
<g>
</g>
<g>
</g>
<g>
</g>
<g>
</g>
<g>
</g>
<g>
</g>
<g>
</g>
<g>
</g>
<g>
</g>
<g>
</g>
<g>
</g>
<g>
</g>
<g>
</g>
<g>
</g>
<g>
</g>
</svg>
