<?xml version="1.0" encoding="iso-8859-1"?>
<!-- Generator: Adobe Illustrator 19.0.0, SVG Export Plug-In . SVG Version: 6.00 Build 0)  -->
<svg xmlns="http://www.w3.org/2000/svg" xmlns:xlink="http://www.w3.org/1999/xlink" version="1.1" id="Layer_1" x="0px" y="0px" viewBox="0 0 512 512" style="enable-background:new 0 0 512 512;" xml:space="preserve" width="512" height="512">
<linearGradient id="SVGID_1_" gradientUnits="userSpaceOnUse" x1="0" y1="256" x2="512" y2="256">
	<stop offset="0" style="stop-color:#00F2FE"/>
	<stop offset="0.0208" style="stop-color:#03EFFE"/>
	<stop offset="0.2931" style="stop-color:#24D2FE"/>
	<stop offset="0.5538" style="stop-color:#3CBDFE"/>
	<stop offset="0.7956" style="stop-color:#4AB0FE"/>
	<stop offset="1" style="stop-color:#4FACFE"/>
</linearGradient>
<path style="fill:url(#SVGID_1_);" d="M452,10.5H60c-33.084,0-60,26.916-60,60v332c0,44.112,35.888,80,80,80h13  c11.046,0,20-8.954,20-20s-8.954-20-20-20H80c-22.056,0-40-17.944-40-40v-271h432v128c0,11.046,8.954,20,20,20s20-8.954,20-20v-189  C512,37.416,485.084,10.5,452,10.5z M371,50.5c11.028,0,20,8.972,20,20s-8.972,20-20,20s-20-8.972-20-20S359.972,50.5,371,50.5z   M471,70.5c0,11.028-8.972,20-20,20s-20-8.972-20-20s8.972-20,20-20S471,59.472,471,70.5z M40,70.5c0-11.028,8.972-20,20-20h254.44  c-2.22,6.26-3.44,12.989-3.44,20c0,7.386,1.349,14.46,3.801,21H40V70.5z M512,339.5v142c0,11.046-8.954,20-20,20s-20-8.954-20-20  v-49.487c-6.26,2.22-12.989,3.44-20,3.44c-33.084,0-60-26.916-60-60V339.5c0-11.046,8.954-20,20-20s20,8.954,20,20v35.954  c0,11.028,8.972,20,20,20s20-8.972,20-20V339.5c0-11.046,8.954-20,20-20S512,328.454,512,339.5z M224,339.5v142  c0,11.046-8.954,20-20,20s-20-8.954-20-20v-49.487c-6.26,2.22-12.989,3.44-20,3.44c-33.084,0-60-26.916-60-60V339.5  c0-11.046,8.954-20,20-20s20,8.954,20,20v35.954c0,11.028,8.972,20,20,20s20-8.972,20-20V339.5c0-11.046,8.954-20,20-20  S224,328.454,224,339.5z M308.5,319.5c-33.36,0-60.5,27.14-60.5,60.5v61c0,33.36,27.14,60.5,60.5,60.5S369,474.36,369,441v-61  C369,346.64,341.86,319.5,308.5,319.5z M329,441c0,11.304-9.196,20.5-20.5,20.5S288,452.304,288,441v-61  c0-11.304,9.196-20.5,20.5-20.5S329,368.696,329,380V441z"/>















</svg>
