<svg height="512pt" viewBox="0 0 512 512" width="512pt" xmlns="http://www.w3.org/2000/svg" xmlns:xlink="http://www.w3.org/1999/xlink"><linearGradient id="a" gradientUnits="userSpaceOnUse" x1="0" x2="512" y1="256" y2="256"><stop offset="0" stop-color="#00f1ff"/><stop offset=".231" stop-color="#00d8ff"/><stop offset=".5138" stop-color="#00c0ff"/><stop offset=".7773" stop-color="#00b2ff"/><stop offset="1" stop-color="#00adff"/></linearGradient><path d="m512 256c0 141.386719-114.613281 256-256 256s-256-114.613281-256-256 114.613281-256 256-256 256 114.613281 256 256zm0 0" fill="url(#a)"/><g fill="#fff"><path d="m187.488281 297.457031h-32.019531c-19.324219 0-35.042969 15.71875-35.042969 35.039063v74.816406c0 8.28125 6.71875 15 15 15 8.285157 0 15-6.71875 15-15v-32.429688h23.703125c8.28125 0 15-6.714843 15-15 0-8.28125-6.71875-15-15-15h-23.703125v-12.386718c0-2.777344 2.261719-5.039063 5.042969-5.039063h32.019531c8.285157 0 15-6.71875 15-15 0-8.285156-6.714843-15-15-15zm0 0"/><path d="m394.867188 372.539062v-33.027343c0-23.1875-18.863282-42.054688-42.050782-42.054688s-42.054687 18.867188-42.054687 42.054688v40.746093c0 23.191407 18.863281 42.054688 42.054687 42.054688 12.171875 0 23.144532-5.203125 30.832032-13.496094.753906 7.578125 7.148437 13.496094 14.925781 13.496094 8.28125 0 15-6.714844 15-15 0-14.503906-7.441407-27.296875-18.707031-34.773438zm-54.105469 7.71875v-40.746093c0-6.648438 5.40625-12.054688 12.054687-12.054688 6.648438 0 12.054688 5.40625 12.054688 12.054688v27.8125c-4.765625 2.511719-8.015625 7.507812-8.015625 13.269531 0 3.5 1.207031 6.710938 3.21875 9.265625-2.019531 1.53125-4.53125 2.453125-7.257813 2.453125-6.648437 0-12.054687-5.40625-12.054687-12.054688zm0 0"/><path d="m135.460938 274.019531c8.28125 0 15-6.71875 15-15v-126.25c0-13.832031 11.25-25.082031 25.078124-25.082031h164.25c13.828126 0 25.078126 11.25 25.078126 25.082031v126.25c0 8.285157 6.71875 15 15 15 8.285156 0 15-6.714843 15-15v-126.25c0-30.371093-24.707032-55.082031-55.078126-55.082031h-164.25c-30.371093 0-55.078124 24.707031-55.078124 55.082031v126.25c0 8.28125 6.714843 15 15 15zm0 0"/><path d="m341.429688 172.847656c0-8.285156-6.714844-15-15-15h-137.605469c-8.285157 0-15 6.714844-15 15s6.714843 15 15 15h137.605469c8.285156 0 15-6.714844 15-15zm0 0"/><path d="m188.824219 211.285156c-8.285157 0-15 6.71875-15 15 0 8.285156 6.714843 15 15 15h83.496093c8.285157 0 15-6.714844 15-15 0-8.28125-6.714843-15-15-15zm0 0"/><path d="m252.949219 297.457031c-24.84375 0-45.058594 20.214844-45.058594 45.058594v64.796875c0 8.285156 6.714844 15 15 15s15-6.714844 15-15v-17.066406h30.121094v17.066406c0 8.285156 6.714843 15 15 15 8.28125 0 15-6.714844 15-15v-64.796875c0-24.84375-20.214844-45.058594-45.0625-45.058594zm-15.058594 62.792969v-17.730469c0-8.304687 6.757813-15.0625 15.0625-15.0625s15.058594 6.757813 15.058594 15.0625v17.730469zm0 0"/></g></svg>