<svg height="512pt" viewBox="0 0 512 512" width="512pt" xmlns="http://www.w3.org/2000/svg" xmlns:xlink="http://www.w3.org/1999/xlink"><linearGradient id="a" gradientUnits="userSpaceOnUse" x1="0" x2="512" y1="256" y2="256"><stop offset="0" stop-color="#00f1ff"/><stop offset=".231" stop-color="#00d8ff"/><stop offset=".5138" stop-color="#00c0ff"/><stop offset=".7773" stop-color="#00b2ff"/><stop offset="1" stop-color="#00adff"/></linearGradient><path d="m512 256c0 141.386719-114.613281 256-256 256s-256-114.613281-256-256 114.613281-256 256-256 256 114.613281 256 256zm0 0" fill="url(#a)"/><g fill="#fff"><path d="m396.050781 232.011719c0 7.160156-5.804687 12.964843-12.96875 12.964843-7.160156 0-12.96875-5.804687-12.96875-12.964843 0-7.164063 5.808594-12.96875 12.96875-12.96875 7.164063 0 12.96875 5.804687 12.96875 12.96875zm0 0"/><path d="m383.082031 193.105469c7.164063 0 12.96875-5.804688 12.96875-12.964844 0-7.164063-5.804687-12.96875-12.96875-12.96875-7.160156 0-12.964843 5.804687-12.964843 12.96875 0 7.160156 5.804687 12.964844 12.964843 12.964844zm0 0"/><path d="m396.050781 128.917969c0 7.160156-5.804687 12.96875-12.96875 12.96875-7.160156 0-12.96875-5.808594-12.96875-12.96875 0-7.164063 5.808594-12.96875 12.96875-12.96875 7.164063 0 12.96875 5.804687 12.96875 12.96875zm0 0"/><path d="m331.214844 141.886719c7.160156 0 12.964844-5.808594 12.964844-12.96875 0-7.164063-5.804688-12.96875-12.964844-12.96875-7.164063 0-12.96875 5.808593-12.96875 12.96875 0 7.160156 5.804687 12.96875 12.96875 12.96875zm0 0"/><path d="m292.308594 128.917969c0 7.160156-5.804688 12.96875-12.964844 12.96875-7.164062 0-12.96875-5.808594-12.96875-12.96875 0-7.164063 5.804688-12.96875 12.96875-12.96875 7.160156 0 12.964844 5.804687 12.964844 12.96875zm0 0"/><path d="m128.917969 267.023438c-7.164063 0-12.96875 5.804687-12.96875 12.964843 0 7.160157 5.804687 12.96875 12.96875 12.96875 7.160156 0 12.96875-5.804687 12.96875-12.96875 0-7.160156-5.808594-12.964843-12.96875-12.964843zm0 0"/><path d="m128.917969 318.894531c-7.164063 0-12.96875 5.804688-12.96875 12.964844 0 7.164063 5.804687 12.96875 12.96875 12.96875 7.160156 0 12.96875-5.804687 12.96875-12.96875 0-7.160156-5.808594-12.964844-12.96875-12.964844zm0 0"/><path d="m128.917969 370.113281c-7.164063 0-12.96875 5.808594-12.96875 12.96875 0 7.164063 5.804687 12.96875 12.96875 12.96875 7.160156 0 12.96875-5.808593 12.96875-12.96875 0-7.160156-5.808594-12.96875-12.96875-12.96875zm0 0"/><path d="m193.757812 383.082031c0 7.164063-5.808593 12.96875-12.96875 12.96875-7.164062 0-12.96875-5.804687-12.96875-12.96875 0-7.160156 5.804688-12.96875 12.96875-12.96875 7.160157 0 12.96875 5.808594 12.96875 12.96875zm0 0"/><path d="m232.65625 370.113281c-7.160156 0-12.964844 5.808594-12.964844 12.96875 0 7.164063 5.804688 12.96875 12.964844 12.96875 7.164062 0 12.96875-5.808593 12.96875-12.96875 0-7.160156-5.804688-12.96875-12.96875-12.96875zm0 0"/><path d="m229.019531 233.277344c4.8125-5.898438 6.6875-13.570313 5.148438-21.050782-4.347657-21.113281-17.496094-38.664062-35.054688-49.085937 5.648438-7.804687 8.996094-17.386719 8.996094-27.738281 0-26.148438-21.273437-47.421875-47.421875-47.421875-26.144531 0-47.417969 21.273437-47.417969 47.421875 0 10.589844 3.492188 20.382812 9.382813 28.285156-17.105469 10.484375-29.875 27.792969-34.148438 48.539062-1.539062 7.480469.339844 15.152344 5.148438 21.050782 4.761718 5.84375 11.804687 9.195312 19.324218 9.195312h96.71875c7.519532 0 14.5625-3.351562 19.324219-9.195312zm-68.332031-115.296875c9.605469 0 17.421875 7.816406 17.421875 17.421875 0 9.605468-7.816406 17.417968-17.421875 17.417968-9.601562 0-17.417969-7.8125-17.417969-17.417968 0-9.605469 7.8125-17.421875 17.417969-17.421875zm-41.1875 94.492187c6.148438-17.492187 22.730469-29.652344 41.4375-29.652344h.796875c18.707031 0 35.289063 12.160157 41.4375 29.652344zm0 0"/><path d="m423.492188 393.773438c-1.667969-8.113282-9.59375-13.339844-17.714844-11.667969-6.140625 1.265625-10.625 6.113281-11.71875 11.914062h-85.234375c6.152343-17.492187 22.734375-29.652343 41.441406-29.652343h.796875c.355469 0 .703125-.027344 1.054688-.054688 25.171874-1.101562 45.316406-21.921875 45.316406-47.363281 0-26.148438-21.273438-47.421875-47.417969-47.421875-26.148437 0-47.417969 21.273437-47.417969 47.421875 0 10.589843 3.492188 20.382812 9.382813 28.285156-17.105469 10.484375-29.875 27.792969-34.148438 48.539063-1.539062 7.476562.335938 15.152343 5.144531 21.050781 4.761719 5.84375 11.808594 9.195312 19.328126 9.195312h96.71875c7.519531 0 14.566406-3.351562 19.324218-9.195312 4.8125-5.898438 6.6875-13.574219 5.144532-21.050781zm-73.476563-94.246094c9.605469 0 17.417969 7.816406 17.417969 17.421875 0 9.601562-7.8125 17.417969-17.417969 17.417969s-17.417969-7.816407-17.417969-17.417969c0-9.605469 7.8125-17.421875 17.417969-17.421875zm0 0"/></g></svg>