<?xml version="1.0" encoding="iso-8859-1"?>
<!-- Generator: Adobe Illustrator 19.0.0, SVG Export Plug-In . SVG Version: 6.00 Build 0)  -->
<svg version="1.1" id="Capa_1" xmlns="http://www.w3.org/2000/svg" xmlns:xlink="http://www.w3.org/1999/xlink" x="0px" y="0px"
	 viewBox="0 0 512.001 512.001" style="enable-background:new 0 0 512.001 512.001;" xml:space="preserve">
<linearGradient id="SVGID_1_" gradientUnits="userSpaceOnUse" x1="0" y1="258.0008" x2="512.0011" y2="258.0008" gradientTransform="matrix(1 0 0 -1 0 514.0013)">
	<stop  offset="0" style="stop-color:#00F2FE"/>
	<stop  offset="0.021" style="stop-color:#03EFFE"/>
	<stop  offset="0.293" style="stop-color:#24D2FE"/>
	<stop  offset="0.554" style="stop-color:#3CBDFE"/>
	<stop  offset="0.796" style="stop-color:#4AB0FE"/>
	<stop  offset="1" style="stop-color:#4FACFE"/>
</linearGradient>
<path style="fill:url(#SVGID_1_);" d="M506.143,477.859l-472-472c-7.811-7.811-20.475-7.811-28.285,0s-7.811,20.474,0,28.284
	l107.275,107.276C104.526,161.069,100,182.472,100,204.001v70c0,44.662-40.238,60.804-42.831,61.796
	C49.132,338.592,44,346.081,44,354.595c0,20.991,7.478,43.941,20.003,61.393c16.669,23.223,41.533,36.013,70.008,36.013H196
	c0,33.084,26.916,60,60,60s60-26.916,60-60h61.989c13.813,0,26.492-2.651,37.847-7.878l62.021,62.021
	c3.906,3.905,9.025,5.857,14.143,5.857s10.237-1.952,14.143-5.857C513.954,498.334,513.954,485.669,506.143,477.859z M256,472.001
	c-11.028,0-20-8.972-20-20h40C276,463.03,267.029,472.001,256,472.001z M377.99,412.001H134.011
	c-30.932,0-44.734-25.917-48.725-45.594c5.903-3.417,12.989-8.192,20.091-14.582C128.028,331.448,140,304.537,140,274.001v-70
	c0-10.62,1.478-21.197,4.337-31.377l239.114,239.114C381.673,411.895,379.863,412.001,377.99,412.001z M177.851,90.89
	c-4.909-9.895-0.867-21.896,9.027-26.805C202.165,56.501,218.29,51.584,235,49.367V20.001c0-11.046,8.954-20,20-20
	c11.046,0,20,8.954,20,20v29.115c77.462,9.274,138,75.573,138,154.885v70c0,45.167,41.153,61.165,42.904,61.823l-0.127-0.046
	l-0.026,0.072c8.242,2.472,14.249,10.106,14.249,19.151c0,11.046-8.954,20-20,20c-2.832,0-5.522-0.596-7.964-1.658
	c-2.526-0.93-18.427-7.135-34.413-21.518C384.973,331.448,373,304.537,373,274.001v-70c0-63.105-51.608-115.137-115.043-115.989
	c-0.471-0.006-0.932-0.051-1.395-0.089c-0.517,0.04-1.034,0.078-1.562,0.078c-0.149,0-0.293-0.019-0.441-0.022
	c-0.173,0.007-0.342,0.031-0.516,0.033c-17.315,0.232-33.932,4.238-49.388,11.906c-2.855,1.417-5.889,2.088-8.873,2.088
	C188.423,102.006,181.343,97.929,177.851,90.89z"/>
<g>
</g>
<g>
</g>
<g>
</g>
<g>
</g>
<g>
</g>
<g>
</g>
<g>
</g>
<g>
</g>
<g>
</g>
<g>
</g>
<g>
</g>
<g>
</g>
<g>
</g>
<g>
</g>
<g>
</g>
</svg>
