<?xml version="1.0" encoding="iso-8859-1"?>
<!-- Generator: Adobe Illustrator 19.0.0, SVG Export Plug-In . SVG Version: 6.00 Build 0)  -->
<svg version="1.1" id="Capa_1" xmlns="http://www.w3.org/2000/svg" xmlns:xlink="http://www.w3.org/1999/xlink" x="0px" y="0px"
	 viewBox="0 0 512 512" style="enable-background:new 0 0 512 512;" xml:space="preserve">
<linearGradient id="SVGID_1_" gradientUnits="userSpaceOnUse" x1="23.7038" y1="258" x2="488.2962" y2="258" gradientTransform="matrix(1 0 0 -1 0 514)">
	<stop  offset="0" style="stop-color:#00F2FE"/>
	<stop  offset="0.021" style="stop-color:#03EFFE"/>
	<stop  offset="0.293" style="stop-color:#24D2FE"/>
	<stop  offset="0.554" style="stop-color:#3CBDFE"/>
	<stop  offset="0.796" style="stop-color:#4AB0FE"/>
	<stop  offset="1" style="stop-color:#4FACFE"/>
</linearGradient>
<path style="fill:url(#SVGID_1_);" d="M455.523,335.795c-1.109-0.434-16.709-6.721-28.175-21.143
	c-6.874-8.646-19.455-10.081-28.103-3.208c-8.646,6.875-10.082,19.456-3.208,28.103c10.34,13.003,22.362,21.652,31.543,26.965
	c-1.535,8.614-4.776,18.24-10.446,26.411C408.229,405.76,395.65,412,378.683,412H134.704c-30.932,0-44.734-25.917-48.725-45.594
	c5.903-3.417,12.989-8.192,20.091-14.582c22.65-20.378,34.623-47.289,34.623-77.824v-70c0-63.112,51.159-115.145,114.043-115.989
	c0.174-0.002,0.343-0.026,0.516-0.033C255.4,87.981,255.544,88,255.693,88c0.527,0,1.045-0.039,1.562-0.079
	c0.463,0.038,0.924,0.083,1.395,0.089c63.435,0.852,115.043,52.885,115.043,115.99v28c0,11.046,8.954,20,20,20s20-8.954,20-20v-28
	c0-79.313-60.538-145.611-138-154.884V20c0-11.046-8.954-20-20-20s-20,8.954-20,20v29.365
	c-34.055,4.521-65.537,20.192-90.106,45.169c-28.95,29.43-44.894,68.306-44.894,109.466v70c0,44.662-40.239,60.804-42.832,61.796
	c-8.037,2.795-13.168,10.283-13.168,18.798c0,20.991,7.478,43.941,20.003,61.393C81.365,439.21,106.229,452,134.704,452h61.989
	c0,33.084,26.916,60,60,60s60-26.916,60-60h61.989c38.142,0,59.835-19.727,71.316-36.274c16.873-24.318,18.694-50.853,18.694-61.132
	C468.693,346.075,463.563,338.588,455.523,335.795z M256.693,472c-11.028,0-20-8.972-20-20h40
	C276.693,463.028,267.722,472,256.693,472z M43.73,186.003c-1.173,0-2.359-0.104-3.555-0.317
	c-10.872-1.95-18.104-12.345-16.154-23.217c8.283-46.185,29.456-88.131,61.229-121.303c7.639-7.977,20.299-8.252,28.277-0.609
	c7.978,7.64,8.25,20.3,0.609,28.277c-26.308,27.467-43.854,62.288-50.744,100.697C61.657,179.208,53.229,186.003,43.73,186.003z
	 M471.824,186.299c-1.194,0.214-2.383,0.317-3.555,0.317c-9.499,0-17.927-6.794-19.662-16.472
	c-6.977-38.895-25.197-75.209-51.304-102.254c-7.671-7.947-7.448-20.608,0.499-28.28c7.948-7.671,20.608-7.448,28.28,0.499
	c31.553,32.687,53.534,76.359,61.896,122.973C489.929,173.954,482.696,184.349,471.824,186.299z"/>
<g>
</g>
<g>
</g>
<g>
</g>
<g>
</g>
<g>
</g>
<g>
</g>
<g>
</g>
<g>
</g>
<g>
</g>
<g>
</g>
<g>
</g>
<g>
</g>
<g>
</g>
<g>
</g>
<g>
</g>
</svg>
